<?xml version="1.0" encoding="utf-8"?>
<!-- Generator: Adobe Illustrator 22.0.0, SVG Export Plug-In . SVG Version: 6.00 Build 0)  -->
<svg version="1.1" xmlns="http://www.w3.org/2000/svg" xmlns:xlink="http://www.w3.org/1999/xlink" x="0px" y="0px"
	 viewBox="0 0 256 256" style="enable-background:new 0 0 256 256;" xml:space="preserve">
<style type="text/css">
	.st0{display:none;}
	.st1{display:inline;}
	.st2{fill:none;stroke:#6B1D1D;stroke-width:0.5;stroke-miterlimit:10;}
	.st3{fill:#3A312A;}
	.st4{fill:#87796F;}
	.st5{fill:#D5DE58;}
	.st6{fill:#695B51;}
	.st7{fill:#FCE8CB;}
	.st8{fill:#F16C7A;}
	.st9{fill:#8AC6DD;}
	.st10{fill:#DECAAD;}
	.st11{fill:#D6DF58;}
	.st12{fill-rule:evenodd;clip-rule:evenodd;fill:#FCE8CB;}
	.st13{fill:#F5978A;}
	.st14{fill:#D7E057;}
	.st15{fill-rule:evenodd;clip-rule:evenodd;fill:#87796F;}
	.st16{fill:#6CA8BF;}
	.st17{fill:#B9C239;}
	.st18{fill:#D34E5C;}
	.st19{fill:#FAE6CA;}
	.st20{fill:#F8E4C8;}
	.st21{fill:#8AC5DC;}
	.st22{fill:#EF6D7A;}
	.st23{fill:#EB6E7A;}
	.st24{fill:#89C4DB;}
	.st25{fill-rule:evenodd;clip-rule:evenodd;fill:#F16C7A;}
	.st26{fill:#F7E3C7;}
	.st27{fill:#F6E2C6;}
	.st28{fill:#ED6E7A;}
	.st29{fill:#8AC3DA;}
	.st30{fill:#D5DC57;}
	.st31{fill-rule:evenodd;clip-rule:evenodd;fill:#D7E057;}
	.st32{fill-rule:evenodd;clip-rule:evenodd;fill:#F8E4C8;}
	.st33{fill:#D4DB56;}
	.st34{fill:#F59689;}
	.st35{fill:#DDC9AC;}
	.st36{fill:#D24E5C;}
	.st37{fill:#6A5C52;}
	.st38{fill:#6CA6BE;}
	.st39{fill:#B8C136;}
	.st40{fill-rule:evenodd;clip-rule:evenodd;fill:#FAE6CA;}
</style>
<g id="Layer_2" class="st0">
	<g class="st1">
		<g>
			<line class="st2" x1="0" y1="4.829" x2="256" y2="4.829"/>
			<line class="st2" x1="0" y1="16.56" x2="256" y2="16.56"/>
			<line class="st2" x1="0" y1="28.29" x2="256" y2="28.29"/>
			<line class="st2" x1="0" y1="40.021" x2="256" y2="40.021"/>
			<line class="st2" x1="0" y1="51.751" x2="256" y2="51.751"/>
			<line class="st2" x1="0" y1="63.482" x2="256" y2="63.482"/>
			<line class="st2" x1="0" y1="75.213" x2="256" y2="75.213"/>
			<line class="st2" x1="0" y1="86.943" x2="256" y2="86.943"/>
			<line class="st2" x1="0" y1="98.674" x2="256" y2="98.674"/>
			<line class="st2" x1="0" y1="110.404" x2="256" y2="110.404"/>
			<line class="st2" x1="0" y1="122.135" x2="256" y2="122.135"/>
			<line class="st2" x1="0" y1="133.865" x2="256" y2="133.865"/>
			<line class="st2" x1="0" y1="145.596" x2="256" y2="145.596"/>
			<line class="st2" x1="0" y1="157.326" x2="256" y2="157.326"/>
			<line class="st2" x1="0" y1="169.057" x2="256" y2="169.057"/>
			<line class="st2" x1="0" y1="180.788" x2="256" y2="180.788"/>
			<line class="st2" x1="0" y1="192.518" x2="256" y2="192.518"/>
			<line class="st2" x1="0" y1="204.249" x2="256" y2="204.249"/>
			<line class="st2" x1="0" y1="215.979" x2="256" y2="215.979"/>
			<line class="st2" x1="0" y1="227.71" x2="256" y2="227.71"/>
			<line class="st2" x1="0" y1="239.44" x2="256" y2="239.44"/>
			<line class="st2" x1="0" y1="251.171" x2="256" y2="251.171"/>
		</g>
		<g>
			<line class="st2" x1="251.171" y1="0" x2="251.171" y2="256"/>
			<line class="st2" x1="239.44" y1="0" x2="239.44" y2="256"/>
			<line class="st2" x1="227.71" y1="0" x2="227.71" y2="256"/>
			<line class="st2" x1="215.979" y1="0" x2="215.979" y2="256"/>
			<line class="st2" x1="204.249" y1="0" x2="204.249" y2="256"/>
			<line class="st2" x1="192.518" y1="0" x2="192.518" y2="256"/>
			<line class="st2" x1="180.787" y1="0" x2="180.787" y2="256"/>
			<line class="st2" x1="169.057" y1="0" x2="169.057" y2="256"/>
			<line class="st2" x1="157.326" y1="0" x2="157.326" y2="256"/>
			<line class="st2" x1="145.596" y1="0" x2="145.596" y2="256"/>
			<line class="st2" x1="133.865" y1="0" x2="133.865" y2="256"/>
			<line class="st2" x1="122.135" y1="0" x2="122.135" y2="256"/>
			<line class="st2" x1="110.404" y1="0" x2="110.404" y2="256"/>
			<line class="st2" x1="98.674" y1="0" x2="98.674" y2="256"/>
			<line class="st2" x1="86.943" y1="0" x2="86.943" y2="256"/>
			<line class="st2" x1="75.212" y1="0" x2="75.212" y2="256"/>
			<line class="st2" x1="63.482" y1="0" x2="63.482" y2="256"/>
			<line class="st2" x1="51.751" y1="0" x2="51.751" y2="256"/>
			<line class="st2" x1="40.021" y1="0" x2="40.021" y2="256"/>
			<line class="st2" x1="28.29" y1="0" x2="28.29" y2="256"/>
			<line class="st2" x1="16.56" y1="0" x2="16.56" y2="256"/>
			<line class="st2" x1="4.829" y1="0" x2="4.829" y2="256"/>
		</g>
	</g>
</g>
<g id="Layer_1">
	<g>
		<path class="st11" d="M48.063,26.073c0,0,3.408,12.659,13.222,13.246c0,0-13.1,4.525-13.321,14.202
			c0,0-2.578-13.572-12.925-14.059C35.039,39.463,47.089,37.637,48.063,26.073z"/>
		<path class="st3" d="M47.962,55.021c-0.712,0-1.335-0.506-1.472-1.217c-0.024-0.125-2.495-12.418-11.523-12.844
			c-0.77-0.036-1.387-0.65-1.427-1.421c-0.039-0.77,0.511-1.444,1.274-1.561c0.441-0.068,10.894-1.816,11.754-12.032
			c0.061-0.726,0.634-1.301,1.359-1.367c0.717-0.063,1.393,0.398,1.583,1.102c0.032,0.116,3.259,11.626,11.864,12.142
			c0.714,0.043,1.297,0.584,1.395,1.292c0.098,0.708-0.319,1.388-0.994,1.622c-0.121,0.042-12.118,4.311-12.313,12.819
			c-0.018,0.767-0.61,1.396-1.375,1.46C48.047,55.02,48.004,55.021,47.962,55.021z M40.222,39.292
			c3.878,1.969,6.23,5.746,7.587,8.877c2.027-4.022,5.942-6.787,8.949-8.428c-4.134-1.842-6.783-5.651-8.334-8.723
			C46.631,35.379,43.152,37.887,40.222,39.292z"/>
		<path class="st11" d="M26.365,43.054c0,0,2.411,8.954,9.352,9.369c0,0-9.266,3.201-9.422,10.045c0,0-1.824-9.6-9.142-9.944
			C17.152,52.525,25.676,51.233,26.365,43.054z"/>
		<path class="st3" d="M26.293,63.969c-0.713,0-1.337-0.507-1.472-1.22c-0.016-0.082-1.704-8.442-7.74-8.727
			c-0.77-0.036-1.387-0.65-1.427-1.421c-0.04-0.77,0.511-1.444,1.273-1.561c0.296-0.047,7.364-1.242,7.943-8.113
			c0.061-0.726,0.635-1.303,1.36-1.368c0.732-0.071,1.392,0.4,1.582,1.101l0,0c0.022,0.079,2.228,7.92,7.994,8.266
			c0.714,0.043,1.299,0.584,1.396,1.293c0.098,0.709-0.32,1.389-0.996,1.622c-0.081,0.028-8.282,2.952-8.412,8.661
			c-0.017,0.768-0.611,1.397-1.376,1.461C26.376,63.967,26.334,63.969,26.293,63.969z M21.774,52.441
			c2.107,1.332,3.523,3.395,4.447,5.279c1.376-2.232,3.515-3.871,5.365-4.972c-2.287-1.27-3.884-3.351-4.941-5.225
			C25.472,49.812,23.63,51.4,21.774,52.441z"/>
		<path class="st11" d="M26.365,16.396c0,0,2.411,8.954,9.352,9.37c0,0-9.266,3.201-9.422,10.045c0,0-1.824-9.6-9.142-9.944
			C17.152,25.867,25.676,24.576,26.365,16.396z"/>
		<path class="st3" d="M26.293,37.312c-0.714,0-1.337-0.507-1.473-1.22c-0.016-0.082-1.704-8.442-7.74-8.727
			c-0.77-0.036-1.387-0.65-1.427-1.421c-0.04-0.769,0.511-1.444,1.273-1.56c0.296-0.047,7.364-1.242,7.943-8.113
			c0.061-0.726,0.635-1.303,1.36-1.368c0.732-0.064,1.392,0.399,1.582,1.102l0,0c0.022,0.079,2.228,7.92,7.993,8.265
			c0.715,0.042,1.299,0.584,1.396,1.293c0.098,0.709-0.319,1.388-0.996,1.622c-0.081,0.028-8.282,2.953-8.412,8.662
			c-0.017,0.768-0.611,1.397-1.376,1.461C26.376,37.31,26.334,37.312,26.293,37.312z M21.774,25.784
			c2.107,1.332,3.523,3.394,4.447,5.279c1.376-2.232,3.515-3.872,5.364-4.973c-2.287-1.269-3.884-3.35-4.941-5.224
			C25.472,23.154,23.63,24.743,21.774,25.784z"/>
		<path class="st19" d="M81.237,187.482v34.317c0,9.833,7.971,17.805,17.805,17.805h121.895c9.833,0,17.805-7.971,17.805-17.805
			V49.658c0-9.833-7.971-17.805-17.805-17.805H99.042c-9.833,0-17.805,7.971-17.805,17.805v124.567V187.482z"/>
		<path class="st3" d="M220.937,241.104H99.041c-10.644,0-19.305-8.66-19.305-19.305v-34.316c0-0.828,0.671-1.5,1.5-1.5
			s1.5,0.672,1.5,1.5v34.316c0,8.99,7.314,16.305,16.305,16.305h121.896c8.99,0,16.305-7.314,16.305-16.305V49.658
			c0-8.99-7.314-16.305-16.305-16.305H99.041c-8.99,0-16.305,7.314-16.305,16.305v124.566c0,0.828-0.671,1.5-1.5,1.5
			s-1.5-0.672-1.5-1.5V49.658c0-10.645,8.66-19.305,19.305-19.305h121.896c10.644,0,19.305,8.66,19.305,19.305v172.141
			C240.242,232.443,231.581,241.104,220.937,241.104z"/>
		<path class="st21" d="M181.039,72.354h57.866V49.658c0-9.833-7.971-17.805-17.805-17.805H99.204
			c-9.833,0-17.805,7.971-17.805,17.805v22.695h86.865H181.039z"/>
		<path class="st3" d="M238.904,73.854h-57.866c-0.829,0-1.5-0.672-1.5-1.5s0.671-1.5,1.5-1.5h56.366V49.658
			c0-8.99-7.314-16.305-16.305-16.305H99.205c-8.99,0-16.305,7.314-16.305,16.305v21.195h85.365c0.829,0,1.5,0.672,1.5,1.5
			s-0.671,1.5-1.5,1.5H81.4c-0.829,0-1.5-0.672-1.5-1.5V49.658c0-10.645,8.66-19.305,19.305-19.305H221.1
			c10.645,0,19.305,8.66,19.305,19.305v22.695C240.404,73.182,239.733,73.854,238.904,73.854z"/>
		<path class="st4" d="M91.943,43.37V22.088c0-3.038,2.462-5.5,5.5-5.5h0.455c3.038,0,5.5,2.462,5.5,5.5V43.37
			c0,3.038-2.462,5.5-5.5,5.5h-0.455C94.406,48.87,91.943,46.407,91.943,43.37z"/>
		<path class="st3" d="M97.898,50.369h-0.455c-3.86,0-7-3.141-7-7V22.088c0-3.859,3.14-7,7-7h0.455c3.86,0,7,3.141,7,7v21.281
			C104.898,47.229,101.758,50.369,97.898,50.369z M97.443,18.088c-2.206,0-4,1.794-4,4v21.281c0,2.206,1.794,4,4,4h0.455
			c2.206,0,4-1.794,4-4V22.088c0-2.206-1.794-4-4-4H97.443z"/>
		<path class="st4" d="M116.936,43.37V22.088c0-3.038,2.463-5.5,5.5-5.5h0.455c3.038,0,5.5,2.462,5.5,5.5V43.37
			c0,3.038-2.462,5.5-5.5,5.5h-0.455C119.398,48.87,116.936,46.407,116.936,43.37z"/>
		<path class="st3" d="M122.891,50.369h-0.455c-3.86,0-7-3.141-7-7V22.088c0-3.859,3.14-7,7-7h0.455c3.86,0,7,3.141,7,7v21.281
			C129.891,47.229,126.75,50.369,122.891,50.369z M122.436,18.088c-2.206,0-4,1.794-4,4v21.281c0,2.206,1.794,4,4,4h0.455
			c2.206,0,4-1.794,4-4V22.088c0-2.206-1.794-4-4-4H122.436z"/>
		<path class="st4" d="M141.928,43.37V22.088c0-3.038,2.462-5.5,5.5-5.5h0.455c3.038,0,5.5,2.462,5.5,5.5V43.37
			c0,3.038-2.462,5.5-5.5,5.5h-0.455C144.391,48.87,141.928,46.407,141.928,43.37z"/>
		<path class="st3" d="M147.883,50.369h-0.455c-3.86,0-7-3.141-7-7V22.088c0-3.859,3.14-7,7-7h0.455c3.86,0,7,3.141,7,7v21.281
			C154.883,47.229,151.743,50.369,147.883,50.369z M147.428,18.088c-2.206,0-4,1.794-4,4v21.281c0,2.206,1.794,4,4,4h0.455
			c2.206,0,4-1.794,4-4V22.088c0-2.206-1.794-4-4-4H147.428z"/>
		<path class="st4" d="M166.921,43.37V22.088c0-3.038,2.462-5.5,5.5-5.5h0.455c3.038,0,5.5,2.462,5.5,5.5V43.37
			c0,3.038-2.462,5.5-5.5,5.5h-0.455C169.383,48.87,166.921,46.407,166.921,43.37z"/>
		<path class="st3" d="M172.875,50.369h-0.455c-3.86,0-7-3.141-7-7V22.088c0-3.859,3.14-7,7-7h0.455c3.86,0,7,3.141,7,7v21.281
			C179.875,47.229,176.735,50.369,172.875,50.369z M172.421,18.088c-2.206,0-4,1.794-4,4v21.281c0,2.206,1.794,4,4,4h0.455
			c2.206,0,4-1.794,4-4V22.088c0-2.206-1.794-4-4-4H172.421z"/>
		<path class="st4" d="M191.913,43.37V22.088c0-3.038,2.462-5.5,5.5-5.5h0.455c3.037,0,5.5,2.462,5.5,5.5V43.37
			c0,3.038-2.463,5.5-5.5,5.5h-0.455C194.376,48.87,191.913,46.407,191.913,43.37z"/>
		<path class="st3" d="M197.868,50.369h-0.455c-3.86,0-7-3.141-7-7V22.088c0-3.859,3.14-7,7-7h0.455c3.86,0,7,3.141,7,7v21.281
			C204.868,47.229,201.728,50.369,197.868,50.369z M197.413,18.088c-2.206,0-4,1.794-4,4v21.281c0,2.206,1.794,4,4,4h0.455
			c2.205,0,4-1.794,4-4V22.088c0-2.206-1.795-4-4-4H197.413z"/>
		<path class="st4" d="M216.906,43.37V22.088c0-3.038,2.462-5.5,5.5-5.5h0.455c3.038,0,5.5,2.462,5.5,5.5V43.37
			c0,3.038-2.462,5.5-5.5,5.5h-0.455C219.368,48.87,216.906,46.407,216.906,43.37z"/>
		<path class="st3" d="M222.861,50.369h-0.455c-3.86,0-7-3.141-7-7V22.088c0-3.859,3.14-7,7-7h0.455c3.859,0,7,3.141,7,7v21.281
			C229.86,47.229,226.72,50.369,222.861,50.369z M222.406,18.088c-2.206,0-4,1.794-4,4v21.281c0,2.206,1.794,4,4,4h0.455
			c2.206,0,4-1.794,4-4V22.088c0-2.206-1.794-4-4-4H222.406z"/>
		<path class="st22" d="M112.795,71.523l3.235-6.4c2.336-4.622,0.483-10.263-4.139-12.599l0,0
			c-4.622-2.336-10.263-0.483-12.599,4.139l-3.235,6.4L112.795,71.523z"/>
		<path class="st3" d="M112.794,73.022c-0.228,0-0.459-0.052-0.676-0.161l-16.738-8.459c-0.739-0.374-1.036-1.276-0.662-2.016
			l3.234-6.4c2.705-5.352,9.259-7.507,14.615-4.801c2.593,1.311,4.521,3.553,5.427,6.312c0.907,2.761,0.684,5.709-0.626,8.302
			l-3.234,6.399C113.87,72.722,113.342,73.022,112.794,73.022z M98.073,62.401l14.061,7.105l2.558-5.061
			c0.949-1.878,1.11-4.013,0.454-6.012c-0.657-1.999-2.053-3.622-3.931-4.571c-3.876-1.961-8.625-0.4-10.584,3.477L98.073,62.401z"
			/>
		<polygon class="st21" points="112.795,71.523 36.413,221.423 19.675,212.963 96.057,63.063 		"/>
		<path class="st3" d="M36.412,222.923c-0.228,0-0.458-0.052-0.676-0.161l-16.738-8.46c-0.355-0.18-0.625-0.494-0.749-0.873
			c-0.124-0.379-0.092-0.792,0.089-1.146L94.721,62.383c0.375-0.738,1.273-1.031,2.013-0.658l16.738,8.459
			c0.355,0.18,0.626,0.494,0.749,0.873c0.124,0.379,0.092,0.792-0.089,1.146l-76.383,149.9
			C37.484,222.624,36.957,222.923,36.412,222.923z M21.694,212.303l14.061,7.107l75.021-147.228l-14.061-7.106L21.694,212.303z"/>
		<polygon class="st22" points="57.741,138.259 19.675,212.963 36.413,221.423 74.479,146.719 		"/>
		<path class="st3" d="M36.412,222.923c-0.228,0-0.458-0.052-0.676-0.161l-16.738-8.46c-0.355-0.18-0.625-0.494-0.749-0.873
			c-0.124-0.379-0.092-0.792,0.089-1.146l38.066-74.704c0.375-0.738,1.275-1.029,2.013-0.658l16.738,8.46
			c0.355,0.18,0.626,0.494,0.749,0.873c0.124,0.379,0.092,0.792-0.089,1.146l-38.066,74.704
			C37.484,222.624,36.957,222.923,36.412,222.923z M21.694,212.303l14.061,7.107l36.705-72.031l-14.061-7.107L21.694,212.303z"/>
		<polygon class="st11" points="36.413,221.423 19.675,212.963 17.096,238.854 		"/>
		<path class="st3" d="M17.095,240.354c-0.23,0-0.462-0.053-0.676-0.161c-0.553-0.279-0.877-0.871-0.816-1.487l2.579-25.891
			c0.049-0.492,0.337-0.929,0.771-1.167c0.435-0.237,0.958-0.245,1.399-0.024l16.738,8.46c0.441,0.224,0.744,0.649,0.81,1.14
			c0.065,0.49-0.115,0.981-0.482,1.312l-19.317,17.431C17.819,240.222,17.459,240.354,17.095,240.354z M20.951,215.288
			l-1.978,19.851l14.811-13.364L20.951,215.288z"/>
		<path class="st10" d="M222.242,73.854v147.95c0,8.99-7.31,16.3-16.3,16.3h15c8.99,0,16.3-7.31,16.3-16.3V73.854H222.242z"/>
		<path class="st16" d="M237.402,49.654v21.2h-15v-20.48h0.46c3.86,0,7-3.14,7-7v-7.44
			C234.392,38.834,237.402,43.894,237.402,49.654z"/>
		<path class="st8" d="M209.751,127.05c0,1.367-0.467,2.739-1.425,3.855l-5.426,6.313c-0.625,0.73-1.39,1.267-2.225,1.606
			c-2.272-2.879-4.842-5.513-7.663-7.85c0.222-0.52,0.531-1.016,0.917-1.466l5.426-6.313c2.126-2.476,5.858-2.757,8.34-0.631
			C209.056,123.732,209.751,125.385,209.751,127.05z"/>
		<path class="st3" d="M200.675,140.324c-0.45,0-0.887-0.202-1.178-0.571c-2.206-2.796-4.71-5.36-7.441-7.623
			c-0.512-0.424-0.684-1.134-0.423-1.745c0.285-0.667,0.675-1.29,1.158-1.854l5.426-6.313c2.658-3.096,7.348-3.452,10.454-0.793
			c1.64,1.408,2.58,3.458,2.58,5.625c0,1.774-0.635,3.49-1.788,4.832l-5.426,6.313c-0.767,0.896-1.709,1.577-2.799,2.019
			C201.056,140.288,200.864,140.324,200.675,140.324z M194.939,130.643c2.2,1.912,4.249,4.012,6.114,6.263
			c0.257-0.191,0.493-0.412,0.707-0.662l5.428-6.316c0.685-0.798,1.063-1.819,1.063-2.877c0-1.291-0.559-2.511-1.533-3.348
			c-1.849-1.582-4.642-1.373-6.225,0.47l-5.426,6.314C195.023,130.538,194.98,130.59,194.939,130.643z"/>
		<circle class="st4" cx="160.189" cy="170.659" r="51.498"/>
		<path class="st3" d="M160.189,223.656c-29.223,0-52.998-23.774-52.998-52.998s23.774-52.998,52.998-52.998
			c29.224,0,52.998,23.774,52.998,52.998S189.413,223.656,160.189,223.656z M160.189,120.66c-27.569,0-49.998,22.429-49.998,49.998
			s22.429,49.998,49.998,49.998c27.569,0,49.998-22.429,49.998-49.998S187.758,120.66,160.189,120.66z"/>
		<path class="st14" d="M125.763,146.157c-4.929,6.913-7.838,15.365-7.838,24.502c0,23.342,18.922,42.264,42.264,42.264
			s42.264-18.922,42.264-42.264s-18.922-42.264-42.264-42.264c-11.126,0-21.242,4.306-28.789,11.334L125.763,146.157z"/>
		<path class="st3" d="M160.189,214.422c-24.131,0-43.763-19.632-43.763-43.764c0-9.152,2.807-17.926,8.117-25.372
			c0.029-0.041,0.06-0.08,0.093-0.118l5.636-6.429c0.033-0.038,0.069-0.074,0.106-0.108c8.128-7.568,18.715-11.736,29.811-11.736
			c24.131,0,43.764,19.632,43.764,43.764S184.32,214.422,160.189,214.422z M126.942,147.089c-4.918,6.922-7.516,15.07-7.516,23.569
			c0,22.477,18.286,40.764,40.763,40.764c22.477,0,40.764-18.286,40.764-40.764s-18.287-40.764-40.764-40.764
			c-10.31,0-20.148,3.863-27.712,10.881L126.942,147.089z"/>
		<path class="st9" d="M167.18,107.56v12.271c-2.283-0.315-4.62-0.473-6.991-0.473c-2.371,0-4.708,0.158-6.991,0.473V107.56H167.18z
			"/>
		<path class="st3" d="M167.18,121.331c-0.068,0-0.137-0.005-0.205-0.014c-4.415-0.611-9.156-0.611-13.572,0
			c-0.428,0.056-0.863-0.071-1.19-0.355c-0.327-0.285-0.515-0.697-0.515-1.131v-12.271c0-0.828,0.671-1.5,1.5-1.5h13.982
			c0.829,0,1.5,0.672,1.5,1.5v12.271c0,0.434-0.188,0.846-0.515,1.131C167.891,121.201,167.54,121.331,167.18,121.331z
			 M160.189,117.857c1.847,0,3.686,0.095,5.491,0.282v-9.079h-10.982v9.079C156.503,117.952,158.343,117.857,160.189,117.857z"/>
		<path class="st9" d="M150.954,91.854h-5.216c-2.757,0-4.992,2.235-4.992,4.992v5.532c0,2.757,2.235,4.992,4.992,4.992h28.904
			c2.757,0,4.992-2.235,4.992-4.992v-5.532c0-2.757-2.235-4.992-4.992-4.992h-15.437H150.954z"/>
		<path class="st3" d="M174.641,108.869h-28.904c-3.58,0-6.492-2.912-6.492-6.492v-5.531c0-3.58,2.912-6.492,6.492-6.492h28.904
			c3.58,0,6.492,2.912,6.492,6.492v5.531C181.133,105.957,178.221,108.869,174.641,108.869z M145.737,93.354
			c-1.925,0-3.492,1.566-3.492,3.492v5.531c0,1.926,1.566,3.492,3.492,3.492h28.904c1.925,0,3.492-1.566,3.492-3.492v-5.531
			c0-1.926-1.566-3.492-3.492-3.492H145.737z"/>
		<path class="st3" d="M160.189,132.02c-0.461,0-0.835,0.374-0.835,0.835v1.697c0,0.461,0.374,0.835,0.835,0.835
			s0.835-0.374,0.835-0.835v-1.697C161.024,132.394,160.65,132.02,160.189,132.02z"/>
		<path class="st3" d="M160.189,205.892c-0.461,0-0.835,0.374-0.835,0.835v1.697c0,0.461,0.374,0.835,0.835,0.835
			s0.835-0.374,0.835-0.835v-1.697C161.024,206.266,160.65,205.892,160.189,205.892z"/>
		<path class="st3" d="M198.809,170.639c0-0.461-0.374-0.835-0.835-0.835h-1.697c-0.461,0-0.835,0.374-0.835,0.835
			c0,0.461,0.374,0.835,0.835,0.835h1.697C198.435,171.475,198.809,171.101,198.809,170.639z"/>
		<path class="st3" d="M124.937,170.639c0-0.461-0.374-0.835-0.835-0.835h-1.697c-0.461,0-0.835,0.374-0.835,0.835
			c0,0.461,0.374,0.835,0.835,0.835h1.697C124.563,171.475,124.937,171.101,124.937,170.639z"/>
		<path class="st3" d="M187.497,143.331c-0.326-0.326-0.855-0.326-1.181,0l-1.2,1.2c-0.326,0.326-0.326,0.855,0,1.181
			c0.326,0.326,0.855,0.326,1.181,0l1.2-1.2C187.823,144.186,187.823,143.658,187.497,143.331z"/>
		<path class="st3" d="M135.262,195.567c-0.326-0.326-0.855-0.326-1.181,0l-1.2,1.2c-0.326,0.326-0.326,0.855,0,1.181
			c0.326,0.326,0.855,0.326,1.181,0l1.2-1.2C135.588,196.422,135.588,195.893,135.262,195.567z"/>
		<path class="st3" d="M187.497,197.948c0.326-0.326,0.326-0.855,0-1.181l-1.2-1.2c-0.326-0.326-0.855-0.326-1.181,0
			c-0.326,0.326-0.326,0.855,0,1.181l1.2,1.2C186.642,198.274,187.171,198.274,187.497,197.948z"/>
		<path class="st3" d="M135.262,145.712c0.326-0.326,0.326-0.855,0-1.181l-1.2-1.2c-0.326-0.326-0.855-0.326-1.181,0
			c-0.326,0.326-0.326,0.855,0,1.181l1.2,1.2C134.407,146.039,134.936,146.039,135.262,145.712z"/>
		<path class="st3" d="M187.496,197.947c-0.327,0.327-0.855,0.327-1.182,0l-1.197-1.197c-0.327-0.327-0.327-0.855,0-1.181
			c0.327-0.327,0.855-0.327,1.181,0l1.197,1.197C187.823,197.092,187.823,197.62,187.496,197.947z"/>
		<path class="st8" d="M157.129,157.986v7.944c0.882-0.572,1.933-0.905,3.06-0.905c1.127,0,2.178,0.333,3.06,0.905v-23.987
			c0-1.694-1.372-3.06-3.06-3.06s-3.06,1.367-3.06,3.06v7.525V157.986z"/>
		<path class="st3" d="M163.249,167.43c-0.285,0-0.57-0.081-0.817-0.242c-1.335-0.868-3.151-0.868-4.486,0
			c-0.461,0.301-1.05,0.322-1.533,0.061c-0.483-0.263-0.785-0.768-0.785-1.318v-23.987c0-2.514,2.045-4.56,4.56-4.56
			c2.515,0,4.561,2.046,4.561,4.56v23.987c0,0.55-0.301,1.056-0.785,1.318C163.741,167.369,163.495,167.43,163.249,167.43z
			 M160.189,163.524c0.529,0,1.052,0.059,1.561,0.172v-21.754c0-0.86-0.7-1.56-1.561-1.56c-0.86,0-1.56,0.699-1.56,1.56v21.754
			C159.138,163.582,159.66,163.524,160.189,163.524z"/>
		<path class="st7" d="M165.826,170.659c0,3.113-2.523,5.637-5.636,5.637s-5.637-2.523-5.637-5.637c0-3.113,2.524-5.636,5.637-5.636
			S165.826,167.546,165.826,170.659z"/>
		<path class="st3" d="M160.189,177.795c-3.935,0-7.136-3.201-7.136-7.137c0-3.935,3.201-7.136,7.136-7.136
			c3.935,0,7.137,3.201,7.137,7.136C167.326,174.594,164.124,177.795,160.189,177.795z M160.189,166.523
			c-2.281,0-4.136,1.855-4.136,4.136c0,2.281,1.855,4.137,4.136,4.137c2.281,0,4.137-1.855,4.137-4.137
			C164.326,168.378,162.47,166.523,160.189,166.523z"/>
	</g>
</g>
</svg>
